<svg xmlns="http://www.w3.org/2000/svg" xmlns:xlink="http://www.w3.org/1999/xlink" width="427" zoomAndPan="magnify" viewBox="0 0 320.25 174.75" height="233" preserveAspectRatio="xMidYMid meet" version="1.0"><defs><g/><clipPath id="9dc8d5b85e"><path d="M 210 22.941406 L 319.5 22.941406 L 319.5 107 L 210 107 Z M 210 22.941406 " clip-rule="nonzero"/></clipPath></defs><g clip-path="url(#9dc8d5b85e)"><path fill="#d4af37" d="M 219.175781 78.664062 C 228.835938 67.089844 244.339844 67.316406 258.382812 67.652344 C 262.316406 67.765625 266.136719 67.878906 269.730469 67.652344 C 276.019531 67.316406 283.996094 65.519531 291.972656 62.484375 C 297.480469 60.351562 302.984375 57.65625 307.8125 54.398438 C 299.164062 68.328125 294.894531 69 282.875 72.148438 C 304.332031 71.472656 309.722656 57.09375 316.238281 44.285156 C 308.039062 52.261719 302.195312 56.308594 291.1875 60.464844 C 283.546875 63.382812 275.796875 65.183594 269.617188 65.519531 C 266.136719 65.742188 262.316406 65.632812 258.382812 65.519531 C 243.777344 65.183594 227.714844 64.84375 217.492188 77.316406 Z M 220.074219 104.949219 C 224.007812 105.511719 227.714844 103.492188 229.398438 100.007812 C 230.859375 97.085938 230.410156 93.714844 228.613281 91.132812 C 230.972656 94.390625 231.195312 98.773438 229.0625 102.253906 C 226.589844 106.300781 221.421875 107.984375 217.042969 106.1875 C 204.460938 101.242188 212.886719 83.941406 222.660156 79 C 236.703125 71.921875 255.238281 78.324219 270.742188 77.539062 C 280.066406 77.089844 288.152344 75.742188 296.128906 70.910156 C 290.738281 77.765625 286.917969 83.941406 278.15625 87.199219 C 272.761719 89.222656 266.585938 89.335938 259.730469 87.3125 C 254.675781 85.851562 245.914062 82.371094 237.152344 86.863281 C 244.117188 81.472656 252.429688 82.933594 260.292969 85.292969 C 266.695312 87.089844 272.3125 86.976562 277.371094 85.179688 C 281.75 83.605469 285.570312 80.683594 288.941406 76.753906 C 282.648438 78.550781 276.582031 79.449219 270.742188 79.675781 C 255.910156 80.460938 236.589844 74.28125 223.558594 80.910156 C 213.671875 85.964844 207.269531 103.042969 220.074219 104.949219 Z M 314.554688 31.140625 C 311.746094 44.285156 304.21875 47.769531 297.140625 51.699219 C 316.464844 45.859375 316.578125 30.804688 319.386719 22.941406 C 301.859375 40.128906 275.121094 56.757812 250.855469 61.8125 C 270.179688 62.933594 303.09375 43.050781 314.554688 31.140625 Z M 314.554688 31.140625 " fill-opacity="1" fill-rule="nonzero"/></g><g fill="#d4af37" fill-opacity="1"><g transform="translate(137.430571, 143.803311)"><g><path d="M 25.75 -26.984375 L 25.75 0 L 19.1875 0 L 19.1875 -11.109375 L 8.953125 -11.109375 L 8.953125 0 L 2.390625 0 L 2.390625 -26.984375 L 8.953125 -26.984375 L 8.953125 -16.40625 L 19.1875 -16.40625 L 19.1875 -26.984375 Z M 25.75 -26.984375 "/></g></g></g><g fill="#d4af37" fill-opacity="1"><g transform="translate(171.326807, 143.803311)"><g><path d="M 1.078125 -10.765625 C 1.078125 -12.960938 1.492188 -14.894531 2.328125 -16.5625 C 3.160156 -18.226562 4.289062 -19.507812 5.71875 -20.40625 C 7.15625 -21.300781 8.757812 -21.75 10.53125 -21.75 C 12.039062 -21.75 13.363281 -21.441406 14.5 -20.828125 C 15.644531 -20.210938 16.523438 -19.40625 17.140625 -18.40625 L 17.140625 -21.453125 L 23.71875 -21.453125 L 23.71875 0 L 17.140625 0 L 17.140625 -3.03125 C 16.503906 -2.03125 15.613281 -1.222656 14.46875 -0.609375 C 13.332031 0.00390625 12.007812 0.3125 10.5 0.3125 C 8.75 0.3125 7.15625 -0.140625 5.71875 -1.046875 C 4.289062 -1.960938 3.160156 -3.257812 2.328125 -4.9375 C 1.492188 -6.613281 1.078125 -8.554688 1.078125 -10.765625 Z M 17.140625 -10.71875 C 17.140625 -12.363281 16.6875 -13.660156 15.78125 -14.609375 C 14.875 -15.554688 13.765625 -16.03125 12.453125 -16.03125 C 11.148438 -16.03125 10.039062 -15.5625 9.125 -14.625 C 8.21875 -13.6875 7.765625 -12.398438 7.765625 -10.765625 C 7.765625 -9.117188 8.21875 -7.816406 9.125 -6.859375 C 10.039062 -5.898438 11.148438 -5.421875 12.453125 -5.421875 C 13.765625 -5.421875 14.875 -5.894531 15.78125 -6.84375 C 16.6875 -7.789062 17.140625 -9.082031 17.140625 -10.71875 Z M 17.140625 -10.71875 "/></g></g></g><g fill="#d4af37" fill-opacity="1"><g transform="translate(203.22471, 143.803311)"><g><path d="M 12.03125 -6.15625 L 16.6875 -21.453125 L 23.671875 -21.453125 L 16.0625 0 L 7.953125 0 L 0.34375 -21.453125 L 7.375 -21.453125 Z M 12.03125 -6.15625 "/></g></g></g><g fill="#d4af37" fill-opacity="1"><g transform="translate(233.085848, 143.803311)"><g><path d="M 22.59375 -11.0625 C 22.59375 -10.445312 22.554688 -9.804688 22.484375 -9.140625 L 7.609375 -9.140625 C 7.710938 -7.816406 8.140625 -6.800781 8.890625 -6.09375 C 9.648438 -5.382812 10.582031 -5.03125 11.6875 -5.03125 C 13.320312 -5.03125 14.460938 -5.722656 15.109375 -7.109375 L 22.109375 -7.109375 C 21.742188 -5.703125 21.09375 -4.429688 20.15625 -3.296875 C 19.21875 -2.171875 18.046875 -1.285156 16.640625 -0.640625 C 15.234375 -0.00390625 13.660156 0.3125 11.921875 0.3125 C 9.816406 0.3125 7.941406 -0.132812 6.296875 -1.03125 C 4.660156 -1.9375 3.378906 -3.21875 2.453125 -4.875 C 1.535156 -6.539062 1.078125 -8.488281 1.078125 -10.71875 C 1.078125 -12.945312 1.53125 -14.894531 2.4375 -16.5625 C 3.351562 -18.226562 4.628906 -19.507812 6.265625 -20.40625 C 7.898438 -21.300781 9.785156 -21.75 11.921875 -21.75 C 13.992188 -21.75 15.835938 -21.3125 17.453125 -20.4375 C 19.066406 -19.570312 20.328125 -18.332031 21.234375 -16.71875 C 22.140625 -15.101562 22.59375 -13.21875 22.59375 -11.0625 Z M 15.875 -12.796875 C 15.875 -13.921875 15.488281 -14.816406 14.71875 -15.484375 C 13.945312 -16.148438 12.988281 -16.484375 11.84375 -16.484375 C 10.738281 -16.484375 9.804688 -16.160156 9.046875 -15.515625 C 8.296875 -14.878906 7.832031 -13.972656 7.65625 -12.796875 Z M 15.875 -12.796875 "/></g></g></g><g fill="#d4af37" fill-opacity="1"><g transform="translate(262.56269, 143.803311)"><g><path d="M 15.453125 -21.671875 C 17.960938 -21.671875 19.96875 -20.859375 21.46875 -19.234375 C 22.96875 -17.609375 23.71875 -15.375 23.71875 -12.53125 L 23.71875 0 L 17.1875 0 L 17.1875 -11.640625 C 17.1875 -13.078125 16.8125 -14.191406 16.0625 -14.984375 C 15.320312 -15.785156 14.320312 -16.1875 13.0625 -16.1875 C 11.8125 -16.1875 10.8125 -15.785156 10.0625 -14.984375 C 9.320312 -14.191406 8.953125 -13.078125 8.953125 -11.640625 L 8.953125 0 L 2.390625 0 L 2.390625 -21.453125 L 8.953125 -21.453125 L 8.953125 -18.609375 C 9.617188 -19.554688 10.515625 -20.300781 11.640625 -20.84375 C 12.773438 -21.394531 14.046875 -21.671875 15.453125 -21.671875 Z M 15.453125 -21.671875 "/></g></g></g><g fill="#d4af37" fill-opacity="1"><g transform="translate(43.737216, 89.550857)"><g><path d="M 17.671875 23.65625 C 17.410156 23.65625 17.171875 23.582031 16.953125 23.4375 C 16.546875 23.257812 16.3125 23.03125 16.25 22.75 C 16.195312 22.476562 16.191406 22.125 16.234375 21.6875 C 16.378906 20.25 16.632812 18.84375 17 17.46875 C 17.375 16.09375 17.796875 14.691406 18.265625 13.265625 C 20.066406 7.796875 21.957031 2.289062 23.9375 -3.25 C 24.519531 -4.863281 24.628906 -6.566406 24.265625 -8.359375 L 24.21875 -8.578125 L 17.9375 -8.578125 C 17.019531 -8.578125 16.101562 -8.578125 15.1875 -8.578125 C 14.269531 -8.578125 13.332031 -8.597656 12.375 -8.640625 C 12.300781 -8.640625 12.140625 -8.617188 11.890625 -8.578125 C 11.671875 -8.546875 11.503906 -8.53125 11.390625 -8.53125 C 11.128906 -8.53125 10.925781 -8.582031 10.78125 -8.6875 C 10.675781 -8.800781 10.585938 -8.988281 10.515625 -9.25 C 10.441406 -9.539062 10.515625 -9.722656 10.734375 -9.796875 C 10.953125 -9.867188 11.28125 -9.90625 11.71875 -9.90625 L 11.9375 -9.90625 C 12.5625 -9.90625 13.191406 -9.941406 13.828125 -10.015625 C 14.472656 -10.085938 15.09375 -10.144531 15.6875 -10.1875 C 16.414062 -10.289062 17.144531 -10.367188 17.875 -10.421875 C 18.613281 -10.484375 19.351562 -10.515625 20.09375 -10.515625 C 20.707031 -10.515625 21.273438 -10.492188 21.796875 -10.453125 C 21.972656 -10.421875 22.117188 -10.40625 22.234375 -10.40625 C 23.660156 -10.40625 24.191406 -11.226562 23.828125 -12.875 C 22.472656 -18.894531 20.304688 -23.921875 17.328125 -27.953125 C 14.359375 -31.992188 10.453125 -35.242188 5.609375 -37.703125 L 5.171875 -37.921875 C 4.617188 -38.171875 4.125 -38.453125 3.6875 -38.765625 C 3.25 -39.078125 3.007812 -39.53125 2.96875 -40.125 C 2.9375 -40.707031 3.128906 -41.085938 3.546875 -41.265625 C 3.972656 -41.453125 4.441406 -41.582031 4.953125 -41.65625 L 5.28125 -41.71875 C 8.289062 -42.34375 11.5 -42.910156 14.90625 -43.421875 C 18.320312 -43.929688 22.082031 -44.441406 26.1875 -44.953125 C 28.539062 -45.210938 30.890625 -45.46875 33.234375 -45.71875 C 35.585938 -45.976562 37.921875 -46.222656 40.234375 -46.453125 C 41.921875 -46.597656 42.816406 -47.476562 42.921875 -49.09375 C 42.992188 -49.894531 43.210938 -50.648438 43.578125 -51.359375 C 43.953125 -52.078125 44.394531 -52.4375 44.90625 -52.4375 C 45.09375 -52.4375 45.273438 -52.382812 45.453125 -52.28125 C 45.816406 -52.09375 46.054688 -51.890625 46.171875 -51.671875 C 46.285156 -51.421875 46.273438 -51.128906 46.140625 -50.796875 C 46.015625 -50.460938 45.859375 -50.128906 45.671875 -49.796875 C 45.566406 -49.546875 45.457031 -49.300781 45.34375 -49.0625 C 45.238281 -48.820312 45.164062 -48.570312 45.125 -48.3125 C 45.125 -48.207031 45.050781 -47.988281 44.90625 -47.65625 C 44.863281 -47.539062 44.785156 -47.3125 44.671875 -46.96875 C 44.566406 -46.625 44.515625 -46.453125 44.515625 -46.453125 L 44.90625 -46.5 C 46.625 -46.832031 48.28125 -47.035156 49.875 -47.109375 C 51.476562 -47.179688 52.976562 -47.21875 54.375 -47.21875 C 54.851562 -47.21875 55.320312 -47.21875 55.78125 -47.21875 C 56.238281 -47.21875 56.703125 -47.21875 57.171875 -47.21875 L 59.265625 -47.15625 C 63.554688 -47.15625 67.832031 -46.609375 72.09375 -45.515625 C 72.457031 -45.398438 72.832031 -45.285156 73.21875 -45.171875 C 73.601562 -45.066406 73.976562 -44.921875 74.34375 -44.734375 C 75.113281 -44.335938 75.5625 -43.988281 75.6875 -43.6875 C 75.820312 -43.394531 75.867188 -43.160156 75.828125 -42.984375 C 75.753906 -42.765625 75.679688 -42.632812 75.609375 -42.59375 C 75.535156 -42.5625 75.484375 -42.546875 75.453125 -42.546875 C 75.335938 -42.546875 75.207031 -42.582031 75.0625 -42.65625 C 74.914062 -42.726562 74.769531 -42.816406 74.625 -42.921875 C 74.332031 -43.109375 74.113281 -43.238281 73.96875 -43.3125 C 72.09375 -44.15625 70.226562 -44.710938 68.375 -44.984375 C 66.519531 -45.265625 64.695312 -45.492188 62.90625 -45.671875 L 61.53125 -45.78125 C 59.945312 -45.925781 58.273438 -46 56.515625 -46 C 54.941406 -46 53.363281 -45.941406 51.78125 -45.828125 C 50.207031 -45.722656 48.648438 -45.617188 47.109375 -45.515625 L 44.796875 -45.34375 C 44.359375 -45.3125 44.035156 -45.191406 43.828125 -44.984375 C 43.628906 -44.785156 43.472656 -44.554688 43.359375 -44.296875 C 41.234375 -39.785156 39.195312 -35.21875 37.25 -30.59375 C 35.3125 -25.96875 33.351562 -21.253906 31.375 -16.453125 L 29.109375 -11.0625 L 29.546875 -10.78125 C 29.617188 -10.820312 29.65625 -10.84375 29.65625 -10.84375 C 29.84375 -10.84375 30 -10.820312 30.125 -10.78125 C 30.257812 -10.75 30.378906 -10.734375 30.484375 -10.734375 C 30.628906 -10.691406 30.738281 -10.65625 30.8125 -10.625 C 31.21875 -10.582031 31.613281 -10.550781 32 -10.53125 C 32.382812 -10.519531 32.78125 -10.515625 33.1875 -10.515625 L 34.234375 -10.453125 L 35.109375 -10.453125 C 36.765625 -10.378906 38.425781 -10.296875 40.09375 -10.203125 C 41.757812 -10.117188 43.421875 -10 45.078125 -9.84375 C 45.472656 -9.8125 45.835938 -9.75 46.171875 -9.65625 C 46.503906 -9.5625 46.707031 -9.460938 46.78125 -9.359375 C 46.78125 -9.285156 46.75 -9.226562 46.6875 -9.1875 C 46.632812 -9.15625 46.476562 -9.140625 46.21875 -9.140625 C 46.144531 -9.140625 46.050781 -9.140625 45.9375 -9.140625 C 45.832031 -9.140625 45.742188 -9.140625 45.671875 -9.140625 C 44.972656 -9.171875 44.320312 -9.195312 43.71875 -9.21875 C 43.113281 -9.238281 42.519531 -9.25 41.9375 -9.25 C 41.414062 -9.25 40.890625 -9.238281 40.359375 -9.21875 C 39.828125 -9.195312 39.285156 -9.1875 38.734375 -9.1875 C 38.222656 -9.1875 37.703125 -9.1875 37.171875 -9.1875 C 36.640625 -9.1875 36.097656 -9.1875 35.546875 -9.1875 C 32.984375 -9.1875 31.019531 -8.957031 29.65625 -8.5 C 28.300781 -8.039062 27.347656 -7.171875 26.796875 -5.890625 C 26.242188 -4.609375 25.859375 -2.71875 25.640625 -0.21875 C 24.941406 8.363281 22.960938 15.628906 19.703125 21.578125 C 19.585938 21.828125 19.4375 22.0625 19.25 22.28125 C 19.070312 22.507812 18.890625 22.75 18.703125 23 L 18.59375 23.109375 C 18.300781 23.472656 17.992188 23.65625 17.671875 23.65625 Z M 22.390625 7.546875 L 18.59375 18.703125 L 18.984375 18.984375 C 21.328125 15.679688 22.59375 11.921875 22.78125 7.703125 Z M 41.28125 -44.953125 L 40.828125 -44.953125 C 35.367188 -44.554688 29.796875 -43.953125 24.109375 -43.140625 C 18.421875 -42.335938 12.164062 -41.253906 5.34375 -39.890625 L 4.84375 -39.84375 L 5.390625 -39.515625 C 8.660156 -37.785156 11.445312 -35.882812 13.75 -33.8125 C 16.0625 -31.738281 18.007812 -29.421875 19.59375 -26.859375 C 22.414062 -22.191406 24.429688 -16.816406 25.640625 -10.734375 L 25.8125 -9.953125 L 26.03125 -10.5625 C 26.976562 -12.65625 27.898438 -14.753906 28.796875 -16.859375 C 29.703125 -18.972656 30.597656 -21.078125 31.484375 -23.171875 C 32.984375 -26.691406 34.519531 -30.25 36.09375 -33.84375 C 37.675781 -37.4375 39.347656 -41.03125 41.109375 -44.625 Z M 41.28125 -44.953125 "/></g></g></g><g fill="#d4af37" fill-opacity="1"><g transform="translate(95.744556, 89.550857)"><g><path d="M 23.5 -47.71875 C 23.9375 -47.3125 24.109375 -46.929688 24.015625 -46.578125 C 23.929688 -46.234375 23.722656 -45.84375 23.390625 -45.40625 C 22.953125 -44.882812 22.539062 -44.332031 22.15625 -43.75 C 21.769531 -43.164062 21.375 -42.597656 20.96875 -42.046875 C 20.925781 -42.003906 20.894531 -41.960938 20.875 -41.921875 C 20.863281 -41.890625 20.835938 -41.859375 20.796875 -41.828125 C 18.816406 -38.960938 16.929688 -36.082031 15.140625 -33.1875 C 11.097656 -26.613281 7.460938 -19.734375 4.234375 -12.546875 C 1.003906 -5.359375 -1.578125 2.066406 -3.515625 9.734375 C -4.835938 15.023438 -5.445312 19.851562 -5.34375 24.21875 C -5.34375 24.394531 -5.359375 24.578125 -5.390625 24.765625 C -5.390625 25.171875 -5.367188 25.554688 -5.328125 25.921875 C -5.296875 26.285156 -5.132812 26.613281 -4.84375 26.90625 C -4.476562 27.351562 -3.851562 27.628906 -2.96875 27.734375 C -2.820312 27.734375 -2.695312 27.804688 -2.59375 27.953125 C -2.40625 28.097656 -2.289062 28.316406 -2.25 28.609375 C -2.21875 28.941406 -2.285156 29.160156 -2.453125 29.265625 C -2.617188 29.378906 -2.8125 29.4375 -3.03125 29.4375 L -3.078125 29.4375 C -5.097656 29.4375 -6.398438 28.484375 -6.984375 26.578125 C -7.273438 25.554688 -7.410156 24.566406 -7.390625 23.609375 C -7.378906 22.648438 -7.316406 21.710938 -7.203125 20.796875 L -7.15625 20.25 C -6.675781 14.75 -5.675781 9.421875 -4.15625 4.265625 C -2.632812 -0.890625 -0.8125 -5.894531 1.3125 -10.75 C 3.445312 -15.613281 5.648438 -20.335938 7.921875 -24.921875 C 9.867188 -28.816406 11.859375 -32.660156 13.890625 -36.453125 C 15.929688 -40.253906 18.421875 -43.75 21.359375 -46.9375 C 21.390625 -47.007812 21.476562 -47.140625 21.625 -47.328125 C 21.769531 -47.515625 21.925781 -47.6875 22.09375 -47.84375 C 22.257812 -48.007812 22.453125 -48.09375 22.671875 -48.09375 C 22.890625 -48.09375 23.164062 -47.96875 23.5 -47.71875 Z M 23.5 -47.71875 "/></g></g></g><g fill="#d4af37" fill-opacity="1"><g transform="translate(108.347643, 89.550857)"><g><path d="M 28.28125 -10.734375 C 28.46875 -10.691406 28.578125 -10.65625 28.609375 -10.625 C 28.722656 -10.4375 28.648438 -10.195312 28.390625 -9.90625 C 24.617188 -5.945312 20.015625 -2.460938 14.578125 0.546875 L 14.203125 0.71875 C 14.015625 0.863281 13.800781 0.988281 13.5625 1.09375 C 13.320312 1.207031 13.078125 1.265625 12.828125 1.265625 C 12.453125 1.265625 12.066406 1.097656 11.671875 0.765625 C 11.191406 0.328125 10.957031 -0.0820312 10.96875 -0.46875 C 10.988281 -0.851562 11.070312 -1.265625 11.21875 -1.703125 C 11.257812 -1.773438 11.296875 -1.847656 11.328125 -1.921875 C 11.367188 -1.992188 11.390625 -2.066406 11.390625 -2.140625 C 11.722656 -3.316406 12.132812 -4.445312 12.625 -5.53125 C 13.125 -6.613281 13.628906 -7.648438 14.140625 -8.640625 C 14.140625 -8.640625 14.257812 -8.859375 14.5 -9.296875 C 14.738281 -9.734375 14.992188 -10.203125 15.265625 -10.703125 C 15.546875 -11.203125 15.738281 -11.539062 15.84375 -11.71875 C 15.84375 -11.757812 15.914062 -11.867188 16.0625 -12.046875 C 16.394531 -12.523438 16.679688 -13.019531 16.921875 -13.53125 C 17.160156 -14.050781 17.222656 -14.457031 17.109375 -14.75 C 17.035156 -14.9375 16.925781 -15.066406 16.78125 -15.140625 C 16.675781 -15.171875 16.585938 -15.1875 16.515625 -15.1875 C 16.140625 -15.1875 15.734375 -14.984375 15.296875 -14.578125 C 14.859375 -14.179688 14.640625 -13.984375 14.640625 -13.984375 C 14.378906 -13.679688 14.117188 -13.3125 13.859375 -12.875 C 13.609375 -12.4375 13.460938 -11.941406 13.421875 -11.390625 L 13.421875 -11.171875 C 13.421875 -11.023438 13.410156 -10.859375 13.390625 -10.671875 C 13.378906 -10.492188 13.316406 -10.40625 13.203125 -10.40625 C 13.171875 -10.40625 13.085938 -10.429688 12.953125 -10.484375 C 12.828125 -10.535156 12.65625 -10.671875 12.4375 -10.890625 L 12.265625 -11.0625 L 11.9375 -10.671875 C 11.832031 -10.597656 11.734375 -10.503906 11.640625 -10.390625 C 11.546875 -10.285156 11.460938 -10.195312 11.390625 -10.125 C 10.953125 -9.644531 10.539062 -9.175781 10.15625 -8.71875 C 9.769531 -8.257812 9.375 -7.8125 8.96875 -7.375 C 8.09375 -6.34375 7.191406 -5.320312 6.265625 -4.3125 C 5.347656 -3.3125 4.359375 -2.367188 3.296875 -1.484375 L 2.921875 -1.15625 C 2.585938 -0.863281 2.238281 -0.585938 1.875 -0.328125 C 1.507812 -0.0664062 1.101562 0.0625 0.65625 0.0625 C 0.289062 0.0625 -0.09375 -0.0664062 -0.5 -0.328125 C -1.269531 -0.878906 -1.632812 -1.519531 -1.59375 -2.25 C -1.5625 -2.988281 -1.453125 -3.707031 -1.265625 -4.40625 L -1.203125 -4.734375 C -0.328125 -8.253906 1.242188 -11.28125 3.515625 -13.8125 C 5.097656 -15.570312 6.972656 -16.453125 9.140625 -16.453125 L 9.296875 -16.453125 C 9.773438 -16.453125 10.234375 -16.425781 10.671875 -16.375 C 11.117188 -16.320312 11.453125 -16.144531 11.671875 -15.84375 C 12.328125 -14.894531 12.945312 -14.421875 13.53125 -14.421875 C 13.832031 -14.421875 14.09375 -14.507812 14.3125 -14.6875 C 14.53125 -14.875 14.769531 -15.078125 15.03125 -15.296875 L 15.1875 -15.46875 C 15.519531 -15.789062 15.890625 -16.046875 16.296875 -16.234375 C 16.472656 -16.304688 16.644531 -16.367188 16.8125 -16.421875 C 16.976562 -16.484375 17.132812 -16.515625 17.28125 -16.515625 C 17.539062 -16.515625 17.796875 -16.421875 18.046875 -16.234375 C 18.335938 -15.972656 18.472656 -15.710938 18.453125 -15.453125 C 18.441406 -15.203125 18.363281 -14.929688 18.21875 -14.640625 C 17.59375 -13.285156 16.96875 -11.953125 16.34375 -10.640625 C 15.71875 -9.335938 15.09375 -8.046875 14.46875 -6.765625 L 13.484375 -4.671875 C 13.265625 -4.273438 13.070312 -3.851562 12.90625 -3.40625 C 12.738281 -2.96875 12.582031 -2.546875 12.4375 -2.140625 L 12.15625 -1.328125 C 12.007812 -0.953125 11.992188 -0.675781 12.109375 -0.5 C 12.179688 -0.382812 12.289062 -0.289062 12.4375 -0.21875 C 12.550781 -0.1875 12.679688 -0.171875 12.828125 -0.171875 C 13.191406 -0.171875 13.609375 -0.28125 14.078125 -0.5 C 14.554688 -0.71875 14.890625 -0.878906 15.078125 -0.984375 C 16.253906 -1.796875 17.410156 -2.613281 18.546875 -3.4375 C 19.679688 -4.257812 20.78125 -5.078125 21.84375 -5.890625 C 22.207031 -6.148438 22.554688 -6.414062 22.890625 -6.6875 C 23.222656 -6.957031 23.570312 -7.222656 23.9375 -7.484375 C 24.15625 -7.671875 24.382812 -7.863281 24.625 -8.0625 C 24.863281 -8.257812 25.113281 -8.453125 25.375 -8.640625 C 25.476562 -8.753906 25.582031 -8.851562 25.6875 -8.9375 C 25.800781 -9.03125 25.929688 -9.113281 26.078125 -9.1875 C 26.265625 -9.375 26.46875 -9.546875 26.6875 -9.703125 C 26.90625 -9.867188 27.125 -10.046875 27.34375 -10.234375 L 27.578125 -10.34375 C 27.679688 -10.414062 27.796875 -10.5 27.921875 -10.59375 C 28.054688 -10.6875 28.175781 -10.734375 28.28125 -10.734375 Z M 12.21875 -12.828125 C 12.582031 -13.222656 12.5625 -13.695312 12.15625 -14.25 C 11.6875 -14.875 11.117188 -15.1875 10.453125 -15.1875 C 10.378906 -15.1875 10.304688 -15.1875 10.234375 -15.1875 C 9.316406 -15 8.507812 -14.707031 7.8125 -14.3125 C 6.195312 -13.351562 4.894531 -12.15625 3.90625 -10.71875 C 2.914062 -9.289062 2.054688 -7.882812 1.328125 -6.5 C 1.242188 -6.351562 1.15625 -6.203125 1.0625 -6.046875 C 0.976562 -5.898438 0.898438 -5.753906 0.828125 -5.609375 C 0.609375 -5.285156 0.40625 -4.9375 0.21875 -4.5625 C 0.03125 -4.195312 -0.113281 -3.796875 -0.21875 -3.359375 C -0.257812 -3.171875 -0.28125 -2.835938 -0.28125 -2.359375 C -0.28125 -1.890625 -0.148438 -1.546875 0.109375 -1.328125 C 0.222656 -1.171875 0.367188 -1.09375 0.546875 -1.09375 C 0.691406 -1.09375 0.875 -1.148438 1.09375 -1.265625 C 2.675781 -2.253906 4.082031 -3.425781 5.3125 -4.78125 C 6.539062 -6.144531 7.722656 -7.523438 8.859375 -8.921875 C 9.410156 -9.578125 9.960938 -10.234375 10.515625 -10.890625 C 11.066406 -11.554688 11.632812 -12.203125 12.21875 -12.828125 Z M 12.21875 -12.828125 "/></g></g></g><g fill="#d4af37" fill-opacity="1"><g transform="translate(137.295785, 89.550857)"><g><path d="M 21.125 -9.40625 C 21.75 -9.40625 22.171875 -9.28125 22.390625 -9.03125 C 22.390625 -8.914062 22.242188 -8.820312 21.953125 -8.75 C 21.472656 -8.601562 20.925781 -8.53125 20.3125 -8.53125 C 19.570312 -8.53125 18.875 -8.625 18.21875 -8.8125 C 16.707031 -9.25 15.179688 -10.289062 13.640625 -11.9375 L 13.484375 -12.046875 L 11.21875 -9.796875 C 10.125 -8.765625 9.035156 -7.71875 7.953125 -6.65625 C 6.867188 -5.59375 5.796875 -4.53125 4.734375 -3.46875 C 4.472656 -3.25 4.203125 -3.035156 3.921875 -2.828125 C 3.648438 -2.628906 3.367188 -2.421875 3.078125 -2.203125 L 2.640625 -1.875 C 2.234375 -1.613281 1.867188 -1.484375 1.546875 -1.484375 C 1.210938 -1.484375 0.878906 -1.578125 0.546875 -1.765625 C -0.148438 -2.203125 -0.515625 -2.9375 -0.546875 -3.96875 C -0.585938 -5.757812 -0.257812 -7.753906 0.4375 -9.953125 C 1.207031 -12.523438 2.070312 -15.222656 3.03125 -18.046875 C 3.101562 -18.304688 3.203125 -18.546875 3.328125 -18.765625 C 3.453125 -18.984375 3.644531 -19.09375 3.90625 -19.09375 C 4.050781 -19.09375 4.195312 -19.054688 4.34375 -18.984375 C 4.632812 -18.835938 4.859375 -18.671875 5.015625 -18.484375 C 5.117188 -18.304688 5.148438 -18.097656 5.109375 -17.859375 C 5.078125 -17.617188 5.023438 -17.390625 4.953125 -17.171875 L 4.953125 -17 C 4.660156 -15.863281 4.363281 -14.726562 4.0625 -13.59375 C 3.769531 -12.457031 3.476562 -11.320312 3.1875 -10.1875 C 3.007812 -9.488281 2.816406 -8.789062 2.609375 -8.09375 C 2.410156 -7.394531 2.21875 -6.695312 2.03125 -6 L 1.65625 -4.625 C 1.507812 -4.03125 1.523438 -3.625 1.703125 -3.40625 C 1.816406 -3.257812 1.984375 -3.1875 2.203125 -3.1875 C 2.566406 -3.1875 3.003906 -3.34375 3.515625 -3.65625 C 4.035156 -3.96875 4.492188 -4.289062 4.890625 -4.625 C 5.296875 -4.957031 5.5 -5.125 5.5 -5.125 C 6.632812 -6.1875 7.828125 -7.429688 9.078125 -8.859375 C 9.585938 -9.410156 10.0625 -10 10.5 -10.625 C 10.945312 -11.25 11.390625 -11.851562 11.828125 -12.4375 C 11.972656 -12.65625 12.175781 -12.957031 12.4375 -13.34375 C 12.695312 -13.726562 12.828125 -13.921875 12.828125 -13.921875 C 12.929688 -14.109375 13.046875 -14.273438 13.171875 -14.421875 C 13.304688 -14.566406 13.484375 -14.640625 13.703125 -14.640625 C 13.847656 -14.640625 13.992188 -14.601562 14.140625 -14.53125 C 14.429688 -14.414062 14.625 -14.257812 14.71875 -14.0625 C 14.8125 -13.863281 14.875 -13.613281 14.90625 -13.3125 C 14.945312 -13.09375 14.988281 -12.945312 15.03125 -12.875 C 15.351562 -11.59375 15.816406 -10.703125 16.421875 -10.203125 C 17.023438 -9.710938 18.007812 -9.429688 19.375 -9.359375 L 19.59375 -9.296875 C 19.695312 -9.296875 19.820312 -9.304688 19.96875 -9.328125 C 20.125 -9.347656 20.253906 -9.359375 20.359375 -9.359375 C 20.472656 -9.390625 20.59375 -9.40625 20.71875 -9.40625 C 20.84375 -9.40625 20.976562 -9.40625 21.125 -9.40625 Z M 21.125 -9.40625 "/></g></g></g><g fill="#d4af37" fill-opacity="1"><g transform="translate(160.355307, 89.550857)"><g><path d="M 19.75 -8.921875 C 20.050781 -8.878906 20.21875 -8.820312 20.25 -8.75 C 20.289062 -8.53125 20.160156 -8.328125 19.859375 -8.140625 C 19.566406 -7.960938 19.238281 -7.804688 18.875 -7.671875 C 18.507812 -7.546875 18.234375 -7.460938 18.046875 -7.421875 C 17.097656 -7.128906 16.144531 -6.984375 15.1875 -6.984375 C 14.3125 -6.984375 13.453125 -7.078125 12.609375 -7.265625 C 12.160156 -7.367188 11.773438 -7.421875 11.453125 -7.421875 C 10.566406 -7.421875 9.921875 -6.960938 9.515625 -6.046875 C 8.453125 -3.703125 6.765625 -1.78125 4.453125 -0.28125 C 4.160156 -0.09375 3.820312 0.0820312 3.4375 0.25 C 3.050781 0.414062 2.640625 0.5 2.203125 0.5 C 1.648438 0.5 1.117188 0.332031 0.609375 0 C -0.128906 -0.476562 -0.550781 -1.066406 -0.65625 -1.765625 C -0.769531 -2.460938 -0.804688 -3.175781 -0.765625 -3.90625 C -0.546875 -7.644531 0.914062 -10.910156 3.625 -13.703125 C 3.957031 -14.035156 4.289062 -14.363281 4.625 -14.6875 C 4.957031 -15.019531 5.285156 -15.351562 5.609375 -15.6875 C 6.160156 -16.164062 6.765625 -16.40625 7.421875 -16.40625 C 7.867188 -16.40625 8.3125 -16.3125 8.75 -16.125 C 9.78125 -15.644531 10.476562 -14.707031 10.84375 -13.3125 C 11.175781 -12.144531 11.191406 -11.007812 10.890625 -9.90625 C 10.742188 -9.28125 10.800781 -8.820312 11.0625 -8.53125 C 11.351562 -8.195312 11.882812 -8.015625 12.65625 -7.984375 C 13.132812 -7.984375 13.59375 -7.984375 14.03125 -7.984375 C 15.09375 -7.984375 16.066406 -8.054688 16.953125 -8.203125 C 17.128906 -8.203125 17.3125 -8.238281 17.5 -8.3125 C 17.6875 -8.382812 17.867188 -8.472656 18.046875 -8.578125 C 18.265625 -8.648438 18.492188 -8.734375 18.734375 -8.828125 C 18.972656 -8.921875 19.222656 -8.96875 19.484375 -8.96875 C 19.585938 -8.96875 19.675781 -8.953125 19.75 -8.921875 Z M 8.359375 -8.359375 C 8.359375 -8.472656 8.359375 -8.582031 8.359375 -8.6875 C 8.253906 -8.875 8.144531 -9.019531 8.03125 -9.125 C 7.925781 -9.238281 7.816406 -9.351562 7.703125 -9.46875 C 7.441406 -9.71875 7.179688 -9.960938 6.921875 -10.203125 C 6.671875 -10.441406 6.398438 -10.691406 6.109375 -10.953125 C 6.035156 -10.984375 5.925781 -11.09375 5.78125 -11.28125 C 5.632812 -11.46875 5.476562 -11.632812 5.3125 -11.78125 C 5.144531 -11.925781 4.96875 -12 4.78125 -12 C 4.5625 -12 4.363281 -11.890625 4.1875 -11.671875 C 3.125 -10.160156 2.25 -8.671875 1.5625 -7.203125 C 0.882812 -5.742188 0.53125 -4.128906 0.5 -2.359375 C 0.5 -1.773438 0.660156 -1.316406 0.984375 -0.984375 C 1.210938 -0.804688 1.488281 -0.71875 1.8125 -0.71875 C 2.070312 -0.71875 2.347656 -0.789062 2.640625 -0.9375 C 4.222656 -1.707031 5.4375 -2.75 6.28125 -4.0625 C 7.125 -5.382812 7.800781 -6.65625 8.3125 -7.875 C 8.34375 -7.945312 8.359375 -8.109375 8.359375 -8.359375 Z M 8.8125 -10.5625 C 8.914062 -11.039062 8.96875 -11.523438 8.96875 -12.015625 C 8.96875 -12.515625 8.710938 -13.003906 8.203125 -13.484375 C 8.054688 -13.671875 7.875 -13.765625 7.65625 -13.765625 C 7.351562 -13.765625 7.082031 -13.648438 6.84375 -13.421875 C 6.613281 -13.203125 6.460938 -13.003906 6.390625 -12.828125 C 6.203125 -12.273438 6.269531 -11.804688 6.59375 -11.421875 C 6.925781 -11.035156 7.296875 -10.675781 7.703125 -10.34375 C 7.816406 -10.269531 7.9375 -10.1875 8.0625 -10.09375 C 8.1875 -10 8.304688 -9.898438 8.421875 -9.796875 L 8.640625 -9.578125 L 8.6875 -9.796875 C 8.6875 -9.941406 8.707031 -10.078125 8.75 -10.203125 C 8.789062 -10.335938 8.8125 -10.457031 8.8125 -10.5625 Z M 8.8125 -10.5625 "/></g></g></g><g fill="#d4af37" fill-opacity="1"><g transform="translate(181.158441, 89.550857)"><g><path d="M 24.046875 -8.53125 C 24.265625 -8.488281 24.394531 -8.429688 24.4375 -8.359375 C 24.46875 -8.253906 24.394531 -8.128906 24.21875 -7.984375 C 23.550781 -7.609375 22.796875 -7.421875 21.953125 -7.421875 C 20.929688 -7.421875 19.867188 -7.695312 18.765625 -8.25 C 17.660156 -8.800781 16.722656 -9.519531 15.953125 -10.40625 C 15.253906 -11.175781 14.722656 -11.742188 14.359375 -12.109375 C 13.992188 -12.472656 13.609375 -12.65625 13.203125 -12.65625 C 12.953125 -12.65625 12.660156 -12.550781 12.328125 -12.34375 C 11.992188 -12.144531 11.585938 -11.882812 11.109375 -11.5625 C 9.347656 -10.3125 7.695312 -8.941406 6.15625 -7.453125 C 4.625 -5.972656 3.140625 -4.476562 1.703125 -2.96875 L 0.328125 -1.59375 C 0.296875 -1.519531 0.207031 -1.390625 0.0625 -1.203125 C -0.0507812 -1.054688 -0.171875 -0.921875 -0.296875 -0.796875 C -0.429688 -0.671875 -0.585938 -0.609375 -0.765625 -0.609375 C -0.984375 -0.609375 -1.257812 -0.71875 -1.59375 -0.9375 C -2 -1.226562 -2.179688 -1.53125 -2.140625 -1.84375 C -2.109375 -2.15625 -2.054688 -2.457031 -1.984375 -2.75 L -1.875 -2.96875 C -0.40625 -7.625 1.390625 -11.734375 3.515625 -15.296875 L 3.625 -15.40625 C 3.738281 -15.625 3.882812 -15.84375 4.0625 -16.0625 C 4.25 -16.289062 4.453125 -16.40625 4.671875 -16.40625 C 4.816406 -16.40625 4.984375 -16.347656 5.171875 -16.234375 C 5.429688 -16.046875 5.597656 -15.863281 5.671875 -15.6875 C 5.742188 -15.5 5.742188 -15.300781 5.671875 -15.09375 C 5.597656 -14.894531 5.503906 -14.707031 5.390625 -14.53125 C 5.316406 -14.3125 5.265625 -14.164062 5.234375 -14.09375 L 4.78125 -13.046875 C 4.5625 -12.492188 4.332031 -11.929688 4.09375 -11.359375 C 3.851562 -10.796875 3.609375 -10.238281 3.359375 -9.6875 C 3.210938 -9.320312 3.046875 -8.953125 2.859375 -8.578125 C 2.679688 -8.210938 2.515625 -7.847656 2.359375 -7.484375 C 2.328125 -7.484375 2.253906 -7.335938 2.140625 -7.046875 C 2.035156 -6.753906 1.9375 -6.441406 1.84375 -6.109375 C 1.75 -5.773438 1.738281 -5.554688 1.8125 -5.453125 L 1.921875 -5.390625 L 2.03125 -5.34375 C 2.40625 -5.414062 2.71875 -5.5625 2.96875 -5.78125 C 3.226562 -6 3.46875 -6.238281 3.6875 -6.5 C 3.757812 -6.570312 3.84375 -6.648438 3.9375 -6.734375 C 4.03125 -6.828125 4.128906 -6.929688 4.234375 -7.046875 L 6.546875 -8.96875 C 7.285156 -9.59375 8.019531 -10.207031 8.75 -10.8125 C 9.476562 -11.414062 10.210938 -12.015625 10.953125 -12.609375 C 11.941406 -13.335938 12.691406 -13.703125 13.203125 -13.703125 C 13.679688 -13.703125 14.148438 -13.488281 14.609375 -13.0625 C 15.066406 -12.644531 15.644531 -12.015625 16.34375 -11.171875 C 17.113281 -10.210938 18.003906 -9.46875 19.015625 -8.9375 C 20.023438 -8.40625 21.039062 -8.140625 22.0625 -8.140625 C 22.394531 -8.140625 22.726562 -8.175781 23.0625 -8.25 C 23.164062 -8.25 23.3125 -8.285156 23.5 -8.359375 C 23.757812 -8.472656 23.941406 -8.53125 24.046875 -8.53125 Z M 24.046875 -8.53125 "/></g></g></g></svg>